<svg width="64" height="64" viewBox="0 0 64 64" fill="none" xmlns="http://www.w3.org/2000/svg">
<g clip-path="url(#clip0_2423_19755)">
<rect width="64" height="64" rx="32" fill="#EFEFEF"/>
<path fill-rule="evenodd" clip-rule="evenodd" d="M31.8761 74C27.0442 74 23.0796 73.5369 21.2212 73.3054C19.3628 73.0738 18.1239 72.9581 16.5133 72.3792C15.5221 72.0319 14.6549 71.9162 13.7876 72.1477C13.292 72.2635 12.5487 72.7265 11.9292 73.4212C11.5575 73.7685 11.062 74 10.6903 74C9.94691 73.8842 9.45133 73.4212 9.07965 72.6108C8.70797 71.5689 8.58408 70.2954 8.58408 68.7904C8.58408 66.2435 8.58408 64.2755 8.58408 62.7705C8.58408 60.5709 8.70796 58.8343 8.70796 57.4451C8.83185 55.477 8.95576 53.7405 9.07965 52.2355C9.32744 50.8463 9.20354 50.0359 8.70796 49.5729C8.33628 49.1098 7.84071 48.7625 7.22124 48.7625C6.23009 48.5309 5.36284 48.2994 4.49558 47.8363C4.00001 47.6048 3.8761 47.3733 4.12389 47.0259C4.74336 46.5629 5.36283 46.0998 6.23009 45.7525C7.9646 45.0579 9.32743 44.2475 10.4425 43.3214C10.6903 42.8583 10.8142 42.511 11.0619 41.5848C11.3097 40.6587 11.6814 39.0379 12.177 37.3014C13.1681 33.7126 14.4071 30.3553 15.7699 27.2295C17.0089 24.7984 18.4956 22.1357 20.2301 19.4731C21.469 17.505 22.3363 16.3473 22.708 16C22.9557 16.1158 23.3274 16.3473 23.6991 16.8104C24.0708 17.2735 24.6903 17.9681 25.4336 19.1257C25.9292 19.9361 26.5487 20.2834 27.292 20.3992C28.531 20.3992 30.1416 20.2834 32 20.2834C33.8584 20.2834 35.469 20.3992 36.708 20.3992C37.4513 20.3992 38.0708 19.9361 38.5664 19.1257C39.3097 18.0838 39.9292 17.2735 40.3009 16.8104C40.7965 16.3473 41.0442 16 41.292 16C41.6637 16.3473 42.4071 17.505 43.7699 19.4731C45.5044 22.2515 46.9911 24.7984 48.2301 27.2295C49.5929 30.3553 50.8319 33.7126 51.823 37.3014C52.3186 39.0379 52.6903 40.5429 52.9381 41.5848C53.1858 42.511 53.3097 42.9741 53.5575 43.3214C54.5487 44.2475 56.0354 45.0579 57.7699 45.7525C58.6372 46.0998 59.2566 46.5629 59.8761 47.0259C60.1239 47.2575 60 47.489 59.5044 47.8363C58.6372 48.2994 57.7699 48.5309 56.7788 48.7625C56.2832 48.8782 55.7876 49.1098 55.292 49.5729C54.9204 49.9202 54.7965 50.8463 54.9204 52.2355C55.0442 53.6248 55.1681 55.3613 55.292 57.4451C55.292 58.8343 55.4159 60.5709 55.4159 62.7705C55.4159 64.2755 55.4159 66.2435 55.4159 68.7904C55.4159 70.4112 55.292 71.6846 54.9204 72.6108C54.5487 73.4212 54.0531 73.8842 53.3097 74C52.8142 74 52.4425 73.7685 52.0708 73.4212C51.3274 72.7265 50.708 72.3792 50.2124 72.1477C49.3451 71.9162 48.354 72.0319 47.4867 72.3792C45.7522 72.8423 44.6372 73.0738 42.7788 73.3054C40.9203 73.5369 36.9557 74 32.1239 74H31.8761ZM42.6549 25.7246C41.5398 24.6826 39.6814 24.6826 38.5664 25.7246C37.4513 24.6826 35.5929 24.6826 34.4779 25.7246C33.3628 26.7665 33.3628 28.503 34.4779 29.5449L38.4425 33.2495L42.531 29.4291C43.646 28.3872 43.646 26.6507 42.531 25.6088L42.6549 25.7246ZM21.0973 25.7246C22.2124 24.6826 24.0708 24.6826 25.1858 25.7246C26.3009 24.6826 28.1593 24.6826 29.2743 25.7246C30.3894 26.7665 30.3894 28.503 29.2743 29.5449L25.3097 33.2495L21.2212 29.4291C20.1062 28.3872 20.1062 26.6507 21.2212 25.6088L21.0973 25.7246Z" fill="#161616"/>
</g>
<defs>
<clipPath id="clip0_2423_19755">
<rect width="64" height="64" rx="32" fill="white"/>
</clipPath>
</defs>
</svg>
