<svg width="41" height="33" viewBox="0 0 41 33" fill="none" xmlns="http://www.w3.org/2000/svg">
<mask id="path-1-outside-1_2422_7177" maskUnits="userSpaceOnUse" x="-0.7995" y="-0.799805" width="42" height="34" fill="black">
<rect fill="white" x="-0.7995" y="-0.799805" width="42" height="34"/>
<path d="M19.1 0.221909C19.2846 0.211227 19.4695 0.206149 19.6544 0.206703C23.6711 0.144917 27.683 0.523224 31.6189 1.33506C33.4148 1.71947 35.2665 2.22319 36.9357 3.00502C38.174 3.58509 39.942 4.56413 40.1675 6.05477C40.2441 6.56033 40.1629 7.46775 40.1664 8.00063C40.121 8.40077 40.0006 8.54308 40.0067 9.02526C40.0266 14.2651 40.0188 19.5049 39.9833 24.7447C39.5077 24.7575 38.9211 24.8194 38.4391 24.8588L35.8222 25.068L28.6048 25.6503C27.0251 25.7822 25.3577 25.9392 23.7786 26.0388V29.9435C23.778 30.5973 23.7997 31.4644 23.7615 32.0992C23.4046 32.103 22.5683 32.1509 22.2289 32.2002L21.4278 30.5664C20.7928 29.1722 20.0925 27.7744 19.4412 26.3773C17.9154 26.4713 16.3091 26.635 14.7805 26.7611L6.70472 27.4061C4.79439 27.5698 2.88291 27.7196 0.970415 27.8547C0.791165 27.6361 0.644807 27.4694 0.450135 27.2651C0.407972 25.6944 0.446988 23.8983 0.447536 22.3111L0.44358 13.3241C0.444331 11.73 0.477253 10.1306 0.419322 8.5378C0.412478 8.3494 0.304905 8.22755 0.258901 8.05375C0.225921 7.92907 0.224679 7.78722 0.220838 7.65877C0.186126 6.50117 0.100819 5.60706 0.936771 4.71216C3.58362 1.87871 10.7711 0.823052 14.462 0.475185C16.0045 0.334596 17.5515 0.250132 19.1 0.221909ZM4.9802 10.0847C6.30784 10.5998 8.04637 10.9853 9.43338 11.2558C16.3363 12.5307 23.4069 12.5735 30.3242 11.3824C32.3813 11.0096 34.4391 10.5205 36.3729 9.7045C37.58 9.19518 39.4259 8.28131 39.9351 6.99567C40.1167 6.53693 40.104 6.04237 39.9088 5.59069C39.2711 4.11765 37.1988 3.19286 35.7959 2.64504C27.6633 -0.530037 11.5817 -0.503479 3.62318 3.06803C2.53209 3.55768 0.903214 4.49172 0.463911 5.67886C0.294104 6.13772 0.31068 6.63312 0.518462 7.07611C1.1747 8.47516 3.2873 9.46979 4.68274 9.96662L4.9802 10.0847ZM2.61988 25.6021C4.69436 25.3719 7.04913 25.2303 9.1372 25.0674L17.2197 24.4306C17.6314 24.4029 18.0429 24.3705 18.4539 24.3334C18.0346 23.3554 17.5386 22.3996 17.0811 21.4382C16.9451 21.1524 16.7424 20.8583 16.6516 20.5568C16.5561 20.2395 16.6183 18.2992 16.6185 17.8072C16.619 16.4106 16.5807 15.0017 16.6224 13.6066C16.1579 13.5434 15.5767 13.5195 15.1005 13.4815C14.356 13.4175 13.6125 13.3426 12.8702 13.2566C10.2235 12.9464 4.88259 11.941 2.64226 10.4911L2.64414 20.7059L2.64252 23.9108C2.64226 24.3045 2.66381 25.2385 2.61988 25.6021ZM23.8225 13.6083C23.8695 14.2495 23.8167 15.4283 23.8155 16.1287C23.819 17.8241 23.8138 19.5198 23.8005 21.2152C23.7884 21.8418 23.7823 22.4684 23.7826 23.0951C23.7823 23.2369 23.7757 23.7944 23.7942 23.8991C24.75 23.8104 25.7207 23.7623 26.6789 23.6852L32.6264 23.2022C34.3306 23.072 36.3004 22.861 37.9918 22.7904C37.9875 21.6256 38.0372 10.5473 37.9632 10.3958C37.5814 10.6346 36.9276 10.9407 36.5043 11.1164C33.435 12.39 30.0308 12.9931 26.7459 13.366C25.8665 13.4658 24.696 13.5864 23.8225 13.6083ZM4.95776 10.2104L4.58433 10.0725C3.2397 9.48079 1.74589 8.89363 0.771816 7.70045C0.582198 7.46819 0.466857 7.2237 0.324629 6.96284C0.343342 7.26147 0.33208 7.58 0.376553 7.87396C0.471304 8.50018 0.975988 9.07056 1.42869 9.47335C2.37043 10.3112 3.59231 10.847 4.75613 11.2847C10.239 13.3466 18.3944 13.8323 24.2259 13.4294C28.2669 13.1502 32.8063 12.5333 36.5476 10.9171C37.5887 10.4674 38.6976 9.90688 39.4528 9.03329C40.2337 8.12969 39.9255 7.94202 40.0875 6.93893C39.3277 8.74907 36.454 9.97655 34.6589 10.4864C26.7889 12.7215 17.314 12.9502 9.32659 11.3744C7.84563 11.088 6.38593 10.6991 4.95776 10.2104ZM1.14603 27.7029L19.4166 26.2326C19.4783 26.1616 19.4547 25.1909 19.4544 25.0356C18.2363 25.0707 16.6447 25.2674 15.3909 25.3663L6.61901 26.0779C5.26766 26.1882 3.82883 26.3437 2.48138 26.4179C2.50682 25.7939 2.49547 25.096 2.49706 24.4648L2.50575 21.0979L2.49605 10.4196C1.8561 10.0277 1.7104 9.86316 1.16644 9.43567L1.16728 22.4775L1.16289 26.1523C1.16194 26.4371 1.18016 27.4855 1.14603 27.7029ZM23.7812 24.5833C24.9233 24.5185 26.157 24.3845 27.3055 24.294L34.9922 23.6925L37.4373 23.4984C37.8249 23.4678 38.3372 23.4144 38.7201 23.403L38.8021 23.3557C38.7816 23.0641 38.7961 22.6214 38.7969 22.3216L38.7984 20.5518L38.8068 14.7579L38.8163 11.6944C38.8169 11.1703 38.7909 10.2233 38.8732 9.75622C38.6269 10.0062 38.4553 10.1151 38.1587 10.3061C38.1111 10.9763 38.1428 11.9358 38.1454 12.6279L38.1379 16.1059L38.1307 20.5127C38.1281 21.2733 38.0949 22.12 38.1264 22.8692L38.0958 22.9436C37.6736 22.9264 37.1018 22.9929 36.6729 23.03L34.8371 23.1753L27.4626 23.7561L25.0928 23.9485C24.7053 23.9797 24.1592 24.0386 23.7823 24.0389L23.7812 24.5833ZM23.6194 31.939C23.5966 30.4601 23.6258 28.9174 23.629 27.4341L23.6709 17.7643C23.6781 16.6873 23.6885 14.8155 23.6902 13.6588C23.6807 13.6452 23.6714 13.6316 23.6619 13.618C23.2475 13.6391 22.803 13.6693 22.3907 13.6675L22.3626 26.1695C22.341 27.7123 22.3306 29.255 22.3309 30.7981C22.3294 31.1413 22.326 31.6168 22.3274 31.974C22.3401 31.9903 22.3528 32.007 22.3655 32.0233C22.7863 32.0105 23.2001 31.9734 23.6194 31.939ZM1.02872 27.5016L1.04094 16.016C1.04579 13.8119 1.07588 11.5091 1.04111 9.30953C0.923574 9.18175 0.632735 8.78649 0.560568 8.74119C0.619451 9.29138 0.594212 10.2322 0.593981 10.8165L0.584422 14.6634L0.591439 27.1744C0.69803 27.2996 0.889785 27.555 1.00813 27.6317C1.04995 27.5824 1.03048 27.5999 1.02872 27.5016ZM21.0071 24.1414C21.3525 24.076 21.5627 24.0903 21.8763 24.0468L21.9038 13.6985C20.9239 13.7199 19.4222 13.7567 18.4636 13.6846L18.468 19.4109L20.0801 22.4346C20.3741 22.9874 20.6891 23.6044 21.0071 24.1414ZM17.0547 19.5201C17.4339 19.4804 17.9444 19.4635 18.2924 19.4127C18.3319 19.3067 18.3191 18.2581 18.3191 18.0707L18.3176 15.206C18.3177 14.7303 18.3017 14.1386 18.3267 13.6717C17.9032 13.6665 17.4799 13.6507 17.0572 13.6245C17.0584 15.5713 17.0854 17.5798 17.0547 19.5201ZM21.8809 24.8637C21.7651 24.8687 21.4371 24.89 21.3383 24.8728C21.4111 25.0421 21.7833 25.9626 21.8538 26.0212L21.8844 26.0201L21.8809 24.8637ZM21.8769 24.7149C21.8801 24.5707 21.896 24.3527 21.8633 24.2196C21.8015 24.1989 21.8301 24.1989 21.7776 24.2105C21.2104 24.2377 20.6562 24.3574 20.0333 24.3953C16.3939 24.62 12.7573 24.8891 9.12429 25.2026C6.98989 25.3786 4.75572 25.5928 2.62297 25.7235C2.62245 25.9025 2.62647 26.1033 2.62049 26.2801C3.25111 26.1926 4.07941 26.1535 4.72644 26.103L7.79038 25.8543L19.5995 24.8818L20.8939 27.5742C21.2138 28.2245 21.669 29.0729 21.8873 29.7448L21.8847 26.3321C21.6932 26.0139 21.2658 25.1302 21.1457 24.7841C21.3955 24.7555 21.6254 24.7295 21.8769 24.7149ZM17.0725 19.6164L18.5398 22.6596C18.8016 23.2016 19.0535 23.7911 19.3554 24.3104C19.4576 24.3063 19.5738 24.3048 19.6743 24.2964L20.8708 24.2292C20.5834 23.6808 18.4338 19.6024 18.3358 19.544L18.3203 19.542C17.9289 19.5677 17.4589 19.6106 17.0725 19.6164ZM18.6311 24.3308L19.175 24.2964C18.5375 22.9483 17.876 21.6022 17.2391 20.2532C17.142 20.0478 16.9958 19.844 16.9502 19.6187C16.8999 19.2195 16.9151 18.728 16.9144 18.3226L16.9187 15.7423C16.9196 15.258 16.9202 14.1675 16.9244 13.6398C16.9097 13.628 16.895 13.6161 16.8804 13.6042L16.762 13.5846L16.769 18.5383C16.7691 18.8389 16.7247 20.3279 16.7914 20.4806C17.2777 21.5923 18.0922 23.2711 18.6311 24.3308ZM22.231 31.9145C22.1417 31.094 22.2211 29.7048 22.2211 28.8424L22.2298 22.15L22.2463 16.5434L22.248 14.7844C22.2483 14.4841 22.2379 14.0081 22.2671 13.7227C22.1966 13.6648 22.1637 13.686 22.0484 13.6824L22.0242 25.4644L22.0297 28.8263C22.0288 29.0347 22.0378 29.8685 21.9991 30.0358L21.9728 30.0463C21.4449 29.0741 21.0056 28.0158 20.4835 27.0375C20.1312 26.377 19.8802 25.7116 19.564 25.0453C19.5591 25.9804 19.4602 26.1097 19.8724 26.9616C20.6438 28.5873 21.4931 30.2847 22.231 31.9145ZM23.8684 25.8762C27.2764 25.6404 30.7158 25.3138 34.1264 25.0482L37.7336 24.7689C38.3121 24.7263 39.3009 24.6834 39.8412 24.5949L39.8617 13.7184L39.8643 10.5226C39.8649 9.98872 39.8672 9.45485 39.8649 8.92104C39.8649 8.87227 39.8548 8.83526 39.819 8.80231C39.5723 9.2162 39.3087 9.42966 38.9512 9.75362L38.9165 23.5203C38.4498 23.5349 37.9081 23.5976 37.437 23.637L35.4127 23.79L27.1227 24.4499C26.4288 24.5021 25.7351 24.5579 25.042 24.6171C24.6484 24.6495 24.1725 24.7006 23.7849 24.6982C23.782 24.9072 23.7508 25.7594 23.8126 25.8806L23.8684 25.8762Z"/>
</mask>
<path d="M19.1 0.221909C19.2846 0.211227 19.4695 0.206149 19.6544 0.206703C23.6711 0.144917 27.683 0.523224 31.6189 1.33506C33.4148 1.71947 35.2665 2.22319 36.9357 3.00502C38.174 3.58509 39.942 4.56413 40.1675 6.05477C40.2441 6.56033 40.1629 7.46775 40.1664 8.00063C40.121 8.40077 40.0006 8.54308 40.0067 9.02526C40.0266 14.2651 40.0188 19.5049 39.9833 24.7447C39.5077 24.7575 38.9211 24.8194 38.4391 24.8588L35.8222 25.068L28.6048 25.6503C27.0251 25.7822 25.3577 25.9392 23.7786 26.0388V29.9435C23.778 30.5973 23.7997 31.4644 23.7615 32.0992C23.4046 32.103 22.5683 32.1509 22.2289 32.2002L21.4278 30.5664C20.7928 29.1722 20.0925 27.7744 19.4412 26.3773C17.9154 26.4713 16.3091 26.635 14.7805 26.7611L6.70472 27.4061C4.79439 27.5698 2.88291 27.7196 0.970415 27.8547C0.791165 27.6361 0.644807 27.4694 0.450135 27.2651C0.407972 25.6944 0.446988 23.8983 0.447536 22.3111L0.44358 13.3241C0.444331 11.73 0.477253 10.1306 0.419322 8.5378C0.412478 8.3494 0.304905 8.22755 0.258901 8.05375C0.225921 7.92907 0.224679 7.78722 0.220838 7.65877C0.186126 6.50117 0.100819 5.60706 0.936771 4.71216C3.58362 1.87871 10.7711 0.823052 14.462 0.475185C16.0045 0.334596 17.5515 0.250132 19.1 0.221909ZM4.9802 10.0847C6.30784 10.5998 8.04637 10.9853 9.43338 11.2558C16.3363 12.5307 23.4069 12.5735 30.3242 11.3824C32.3813 11.0096 34.4391 10.5205 36.3729 9.7045C37.58 9.19518 39.4259 8.28131 39.9351 6.99567C40.1167 6.53693 40.104 6.04237 39.9088 5.59069C39.2711 4.11765 37.1988 3.19286 35.7959 2.64504C27.6633 -0.530037 11.5817 -0.503479 3.62318 3.06803C2.53209 3.55768 0.903214 4.49172 0.463911 5.67886C0.294104 6.13772 0.31068 6.63312 0.518462 7.07611C1.1747 8.47516 3.2873 9.46979 4.68274 9.96662L4.9802 10.0847ZM2.61988 25.6021C4.69436 25.3719 7.04913 25.2303 9.1372 25.0674L17.2197 24.4306C17.6314 24.4029 18.0429 24.3705 18.4539 24.3334C18.0346 23.3554 17.5386 22.3996 17.0811 21.4382C16.9451 21.1524 16.7424 20.8583 16.6516 20.5568C16.5561 20.2395 16.6183 18.2992 16.6185 17.8072C16.619 16.4106 16.5807 15.0017 16.6224 13.6066C16.1579 13.5434 15.5767 13.5195 15.1005 13.4815C14.356 13.4175 13.6125 13.3426 12.8702 13.2566C10.2235 12.9464 4.88259 11.941 2.64226 10.4911L2.64414 20.7059L2.64252 23.9108C2.64226 24.3045 2.66381 25.2385 2.61988 25.6021ZM23.8225 13.6083C23.8695 14.2495 23.8167 15.4283 23.8155 16.1287C23.819 17.8241 23.8138 19.5198 23.8005 21.2152C23.7884 21.8418 23.7823 22.4684 23.7826 23.0951C23.7823 23.2369 23.7757 23.7944 23.7942 23.8991C24.75 23.8104 25.7207 23.7623 26.6789 23.6852L32.6264 23.2022C34.3306 23.072 36.3004 22.861 37.9918 22.7904C37.9875 21.6256 38.0372 10.5473 37.9632 10.3958C37.5814 10.6346 36.9276 10.9407 36.5043 11.1164C33.435 12.39 30.0308 12.9931 26.7459 13.366C25.8665 13.4658 24.696 13.5864 23.8225 13.6083ZM4.95776 10.2104L4.58433 10.0725C3.2397 9.48079 1.74589 8.89363 0.771816 7.70045C0.582198 7.46819 0.466857 7.2237 0.324629 6.96284C0.343342 7.26147 0.33208 7.58 0.376553 7.87396C0.471304 8.50018 0.975988 9.07056 1.42869 9.47335C2.37043 10.3112 3.59231 10.847 4.75613 11.2847C10.239 13.3466 18.3944 13.8323 24.2259 13.4294C28.2669 13.1502 32.8063 12.5333 36.5476 10.9171C37.5887 10.4674 38.6976 9.90688 39.4528 9.03329C40.2337 8.12969 39.9255 7.94202 40.0875 6.93893C39.3277 8.74907 36.454 9.97655 34.6589 10.4864C26.7889 12.7215 17.314 12.9502 9.32659 11.3744C7.84563 11.088 6.38593 10.6991 4.95776 10.2104ZM1.14603 27.7029L19.4166 26.2326C19.4783 26.1616 19.4547 25.1909 19.4544 25.0356C18.2363 25.0707 16.6447 25.2674 15.3909 25.3663L6.61901 26.0779C5.26766 26.1882 3.82883 26.3437 2.48138 26.4179C2.50682 25.7939 2.49547 25.096 2.49706 24.4648L2.50575 21.0979L2.49605 10.4196C1.8561 10.0277 1.7104 9.86316 1.16644 9.43567L1.16728 22.4775L1.16289 26.1523C1.16194 26.4371 1.18016 27.4855 1.14603 27.7029ZM23.7812 24.5833C24.9233 24.5185 26.157 24.3845 27.3055 24.294L34.9922 23.6925L37.4373 23.4984C37.8249 23.4678 38.3372 23.4144 38.7201 23.403L38.8021 23.3557C38.7816 23.0641 38.7961 22.6214 38.7969 22.3216L38.7984 20.5518L38.8068 14.7579L38.8163 11.6944C38.8169 11.1703 38.7909 10.2233 38.8732 9.75622C38.6269 10.0062 38.4553 10.1151 38.1587 10.3061C38.1111 10.9763 38.1428 11.9358 38.1454 12.6279L38.1379 16.1059L38.1307 20.5127C38.1281 21.2733 38.0949 22.12 38.1264 22.8692L38.0958 22.9436C37.6736 22.9264 37.1018 22.9929 36.6729 23.03L34.8371 23.1753L27.4626 23.7561L25.0928 23.9485C24.7053 23.9797 24.1592 24.0386 23.7823 24.0389L23.7812 24.5833ZM23.6194 31.939C23.5966 30.4601 23.6258 28.9174 23.629 27.4341L23.6709 17.7643C23.6781 16.6873 23.6885 14.8155 23.6902 13.6588C23.6807 13.6452 23.6714 13.6316 23.6619 13.618C23.2475 13.6391 22.803 13.6693 22.3907 13.6675L22.3626 26.1695C22.341 27.7123 22.3306 29.255 22.3309 30.7981C22.3294 31.1413 22.326 31.6168 22.3274 31.974C22.3401 31.9903 22.3528 32.007 22.3655 32.0233C22.7863 32.0105 23.2001 31.9734 23.6194 31.939ZM1.02872 27.5016L1.04094 16.016C1.04579 13.8119 1.07588 11.5091 1.04111 9.30953C0.923574 9.18175 0.632735 8.78649 0.560568 8.74119C0.619451 9.29138 0.594212 10.2322 0.593981 10.8165L0.584422 14.6634L0.591439 27.1744C0.69803 27.2996 0.889785 27.555 1.00813 27.6317C1.04995 27.5824 1.03048 27.5999 1.02872 27.5016ZM21.0071 24.1414C21.3525 24.076 21.5627 24.0903 21.8763 24.0468L21.9038 13.6985C20.9239 13.7199 19.4222 13.7567 18.4636 13.6846L18.468 19.4109L20.0801 22.4346C20.3741 22.9874 20.6891 23.6044 21.0071 24.1414ZM17.0547 19.5201C17.4339 19.4804 17.9444 19.4635 18.2924 19.4127C18.3319 19.3067 18.3191 18.2581 18.3191 18.0707L18.3176 15.206C18.3177 14.7303 18.3017 14.1386 18.3267 13.6717C17.9032 13.6665 17.4799 13.6507 17.0572 13.6245C17.0584 15.5713 17.0854 17.5798 17.0547 19.5201ZM21.8809 24.8637C21.7651 24.8687 21.4371 24.89 21.3383 24.8728C21.4111 25.0421 21.7833 25.9626 21.8538 26.0212L21.8844 26.0201L21.8809 24.8637ZM21.8769 24.7149C21.8801 24.5707 21.896 24.3527 21.8633 24.2196C21.8015 24.1989 21.8301 24.1989 21.7776 24.2105C21.2104 24.2377 20.6562 24.3574 20.0333 24.3953C16.3939 24.62 12.7573 24.8891 9.12429 25.2026C6.98989 25.3786 4.75572 25.5928 2.62297 25.7235C2.62245 25.9025 2.62647 26.1033 2.62049 26.2801C3.25111 26.1926 4.07941 26.1535 4.72644 26.103L7.79038 25.8543L19.5995 24.8818L20.8939 27.5742C21.2138 28.2245 21.669 29.0729 21.8873 29.7448L21.8847 26.3321C21.6932 26.0139 21.2658 25.1302 21.1457 24.7841C21.3955 24.7555 21.6254 24.7295 21.8769 24.7149ZM17.0725 19.6164L18.5398 22.6596C18.8016 23.2016 19.0535 23.7911 19.3554 24.3104C19.4576 24.3063 19.5738 24.3048 19.6743 24.2964L20.8708 24.2292C20.5834 23.6808 18.4338 19.6024 18.3358 19.544L18.3203 19.542C17.9289 19.5677 17.4589 19.6106 17.0725 19.6164ZM18.6311 24.3308L19.175 24.2964C18.5375 22.9483 17.876 21.6022 17.2391 20.2532C17.142 20.0478 16.9958 19.844 16.9502 19.6187C16.8999 19.2195 16.9151 18.728 16.9144 18.3226L16.9187 15.7423C16.9196 15.258 16.9202 14.1675 16.9244 13.6398C16.9097 13.628 16.895 13.6161 16.8804 13.6042L16.762 13.5846L16.769 18.5383C16.7691 18.8389 16.7247 20.3279 16.7914 20.4806C17.2777 21.5923 18.0922 23.2711 18.6311 24.3308ZM22.231 31.9145C22.1417 31.094 22.2211 29.7048 22.2211 28.8424L22.2298 22.15L22.2463 16.5434L22.248 14.7844C22.2483 14.4841 22.2379 14.0081 22.2671 13.7227C22.1966 13.6648 22.1637 13.686 22.0484 13.6824L22.0242 25.4644L22.0297 28.8263C22.0288 29.0347 22.0378 29.8685 21.9991 30.0358L21.9728 30.0463C21.4449 29.0741 21.0056 28.0158 20.4835 27.0375C20.1312 26.377 19.8802 25.7116 19.564 25.0453C19.5591 25.9804 19.4602 26.1097 19.8724 26.9616C20.6438 28.5873 21.4931 30.2847 22.231 31.9145ZM23.8684 25.8762C27.2764 25.6404 30.7158 25.3138 34.1264 25.0482L37.7336 24.7689C38.3121 24.7263 39.3009 24.6834 39.8412 24.5949L39.8617 13.7184L39.8643 10.5226C39.8649 9.98872 39.8672 9.45485 39.8649 8.92104C39.8649 8.87227 39.8548 8.83526 39.819 8.80231C39.5723 9.2162 39.3087 9.42966 38.9512 9.75362L38.9165 23.5203C38.4498 23.5349 37.9081 23.5976 37.437 23.637L35.4127 23.79L27.1227 24.4499C26.4288 24.5021 25.7351 24.5579 25.042 24.6171C24.6484 24.6495 24.1725 24.7006 23.7849 24.6982C23.782 24.9072 23.7508 25.7594 23.8126 25.8806L23.8684 25.8762Z" fill="#161616"/>
<path d="M19.1 0.221909C19.2846 0.211227 19.4695 0.206149 19.6544 0.206703C23.6711 0.144917 27.683 0.523224 31.6189 1.33506C33.4148 1.71947 35.2665 2.22319 36.9357 3.00502C38.174 3.58509 39.942 4.56413 40.1675 6.05477C40.2441 6.56033 40.1629 7.46775 40.1664 8.00063C40.121 8.40077 40.0006 8.54308 40.0067 9.02526C40.0266 14.2651 40.0188 19.5049 39.9833 24.7447C39.5077 24.7575 38.9211 24.8194 38.4391 24.8588L35.8222 25.068L28.6048 25.6503C27.0251 25.7822 25.3577 25.9392 23.7786 26.0388V29.9435C23.778 30.5973 23.7997 31.4644 23.7615 32.0992C23.4046 32.103 22.5683 32.1509 22.2289 32.2002L21.4278 30.5664C20.7928 29.1722 20.0925 27.7744 19.4412 26.3773C17.9154 26.4713 16.3091 26.635 14.7805 26.7611L6.70472 27.4061C4.79439 27.5698 2.88291 27.7196 0.970415 27.8547C0.791165 27.6361 0.644807 27.4694 0.450135 27.2651C0.407972 25.6944 0.446988 23.8983 0.447536 22.3111L0.44358 13.3241C0.444331 11.73 0.477253 10.1306 0.419322 8.5378C0.412478 8.3494 0.304905 8.22755 0.258901 8.05375C0.225921 7.92907 0.224679 7.78722 0.220838 7.65877C0.186126 6.50117 0.100819 5.60706 0.936771 4.71216C3.58362 1.87871 10.7711 0.823052 14.462 0.475185C16.0045 0.334596 17.5515 0.250132 19.1 0.221909ZM4.9802 10.0847C6.30784 10.5998 8.04637 10.9853 9.43338 11.2558C16.3363 12.5307 23.4069 12.5735 30.3242 11.3824C32.3813 11.0096 34.4391 10.5205 36.3729 9.7045C37.58 9.19518 39.4259 8.28131 39.9351 6.99567C40.1167 6.53693 40.104 6.04237 39.9088 5.59069C39.2711 4.11765 37.1988 3.19286 35.7959 2.64504C27.6633 -0.530037 11.5817 -0.503479 3.62318 3.06803C2.53209 3.55768 0.903214 4.49172 0.463911 5.67886C0.294104 6.13772 0.31068 6.63312 0.518462 7.07611C1.1747 8.47516 3.2873 9.46979 4.68274 9.96662L4.9802 10.0847ZM2.61988 25.6021C4.69436 25.3719 7.04913 25.2303 9.1372 25.0674L17.2197 24.4306C17.6314 24.4029 18.0429 24.3705 18.4539 24.3334C18.0346 23.3554 17.5386 22.3996 17.0811 21.4382C16.9451 21.1524 16.7424 20.8583 16.6516 20.5568C16.5561 20.2395 16.6183 18.2992 16.6185 17.8072C16.619 16.4106 16.5807 15.0017 16.6224 13.6066C16.1579 13.5434 15.5767 13.5195 15.1005 13.4815C14.356 13.4175 13.6125 13.3426 12.8702 13.2566C10.2235 12.9464 4.88259 11.941 2.64226 10.4911L2.64414 20.7059L2.64252 23.9108C2.64226 24.3045 2.66381 25.2385 2.61988 25.6021ZM23.8225 13.6083C23.8695 14.2495 23.8167 15.4283 23.8155 16.1287C23.819 17.8241 23.8138 19.5198 23.8005 21.2152C23.7884 21.8418 23.7823 22.4684 23.7826 23.0951C23.7823 23.2369 23.7757 23.7944 23.7942 23.8991C24.75 23.8104 25.7207 23.7623 26.6789 23.6852L32.6264 23.2022C34.3306 23.072 36.3004 22.861 37.9918 22.7904C37.9875 21.6256 38.0372 10.5473 37.9632 10.3958C37.5814 10.6346 36.9276 10.9407 36.5043 11.1164C33.435 12.39 30.0308 12.9931 26.7459 13.366C25.8665 13.4658 24.696 13.5864 23.8225 13.6083ZM4.95776 10.2104L4.58433 10.0725C3.2397 9.48079 1.74589 8.89363 0.771816 7.70045C0.582198 7.46819 0.466857 7.2237 0.324629 6.96284C0.343342 7.26147 0.33208 7.58 0.376553 7.87396C0.471304 8.50018 0.975988 9.07056 1.42869 9.47335C2.37043 10.3112 3.59231 10.847 4.75613 11.2847C10.239 13.3466 18.3944 13.8323 24.2259 13.4294C28.2669 13.1502 32.8063 12.5333 36.5476 10.9171C37.5887 10.4674 38.6976 9.90688 39.4528 9.03329C40.2337 8.12969 39.9255 7.94202 40.0875 6.93893C39.3277 8.74907 36.454 9.97655 34.6589 10.4864C26.7889 12.7215 17.314 12.9502 9.32659 11.3744C7.84563 11.088 6.38593 10.6991 4.95776 10.2104ZM1.14603 27.7029L19.4166 26.2326C19.4783 26.1616 19.4547 25.1909 19.4544 25.0356C18.2363 25.0707 16.6447 25.2674 15.3909 25.3663L6.61901 26.0779C5.26766 26.1882 3.82883 26.3437 2.48138 26.4179C2.50682 25.7939 2.49547 25.096 2.49706 24.4648L2.50575 21.0979L2.49605 10.4196C1.8561 10.0277 1.7104 9.86316 1.16644 9.43567L1.16728 22.4775L1.16289 26.1523C1.16194 26.4371 1.18016 27.4855 1.14603 27.7029ZM23.7812 24.5833C24.9233 24.5185 26.157 24.3845 27.3055 24.294L34.9922 23.6925L37.4373 23.4984C37.8249 23.4678 38.3372 23.4144 38.7201 23.403L38.8021 23.3557C38.7816 23.0641 38.7961 22.6214 38.7969 22.3216L38.7984 20.5518L38.8068 14.7579L38.8163 11.6944C38.8169 11.1703 38.7909 10.2233 38.8732 9.75622C38.6269 10.0062 38.4553 10.1151 38.1587 10.3061C38.1111 10.9763 38.1428 11.9358 38.1454 12.6279L38.1379 16.1059L38.1307 20.5127C38.1281 21.2733 38.0949 22.12 38.1264 22.8692L38.0958 22.9436C37.6736 22.9264 37.1018 22.9929 36.6729 23.03L34.8371 23.1753L27.4626 23.7561L25.0928 23.9485C24.7053 23.9797 24.1592 24.0386 23.7823 24.0389L23.7812 24.5833ZM23.6194 31.939C23.5966 30.4601 23.6258 28.9174 23.629 27.4341L23.6709 17.7643C23.6781 16.6873 23.6885 14.8155 23.6902 13.6588C23.6807 13.6452 23.6714 13.6316 23.6619 13.618C23.2475 13.6391 22.803 13.6693 22.3907 13.6675L22.3626 26.1695C22.341 27.7123 22.3306 29.255 22.3309 30.7981C22.3294 31.1413 22.326 31.6168 22.3274 31.974C22.3401 31.9903 22.3528 32.007 22.3655 32.0233C22.7863 32.0105 23.2001 31.9734 23.6194 31.939ZM1.02872 27.5016L1.04094 16.016C1.04579 13.8119 1.07588 11.5091 1.04111 9.30953C0.923574 9.18175 0.632735 8.78649 0.560568 8.74119C0.619451 9.29138 0.594212 10.2322 0.593981 10.8165L0.584422 14.6634L0.591439 27.1744C0.69803 27.2996 0.889785 27.555 1.00813 27.6317C1.04995 27.5824 1.03048 27.5999 1.02872 27.5016ZM21.0071 24.1414C21.3525 24.076 21.5627 24.0903 21.8763 24.0468L21.9038 13.6985C20.9239 13.7199 19.4222 13.7567 18.4636 13.6846L18.468 19.4109L20.0801 22.4346C20.3741 22.9874 20.6891 23.6044 21.0071 24.1414ZM17.0547 19.5201C17.4339 19.4804 17.9444 19.4635 18.2924 19.4127C18.3319 19.3067 18.3191 18.2581 18.3191 18.0707L18.3176 15.206C18.3177 14.7303 18.3017 14.1386 18.3267 13.6717C17.9032 13.6665 17.4799 13.6507 17.0572 13.6245C17.0584 15.5713 17.0854 17.5798 17.0547 19.5201ZM21.8809 24.8637C21.7651 24.8687 21.4371 24.89 21.3383 24.8728C21.4111 25.0421 21.7833 25.9626 21.8538 26.0212L21.8844 26.0201L21.8809 24.8637ZM21.8769 24.7149C21.8801 24.5707 21.896 24.3527 21.8633 24.2196C21.8015 24.1989 21.8301 24.1989 21.7776 24.2105C21.2104 24.2377 20.6562 24.3574 20.0333 24.3953C16.3939 24.62 12.7573 24.8891 9.12429 25.2026C6.98989 25.3786 4.75572 25.5928 2.62297 25.7235C2.62245 25.9025 2.62647 26.1033 2.62049 26.2801C3.25111 26.1926 4.07941 26.1535 4.72644 26.103L7.79038 25.8543L19.5995 24.8818L20.8939 27.5742C21.2138 28.2245 21.669 29.0729 21.8873 29.7448L21.8847 26.3321C21.6932 26.0139 21.2658 25.1302 21.1457 24.7841C21.3955 24.7555 21.6254 24.7295 21.8769 24.7149ZM17.0725 19.6164L18.5398 22.6596C18.8016 23.2016 19.0535 23.7911 19.3554 24.3104C19.4576 24.3063 19.5738 24.3048 19.6743 24.2964L20.8708 24.2292C20.5834 23.6808 18.4338 19.6024 18.3358 19.544L18.3203 19.542C17.9289 19.5677 17.4589 19.6106 17.0725 19.6164ZM18.6311 24.3308L19.175 24.2964C18.5375 22.9483 17.876 21.6022 17.2391 20.2532C17.142 20.0478 16.9958 19.844 16.9502 19.6187C16.8999 19.2195 16.9151 18.728 16.9144 18.3226L16.9187 15.7423C16.9196 15.258 16.9202 14.1675 16.9244 13.6398C16.9097 13.628 16.895 13.6161 16.8804 13.6042L16.762 13.5846L16.769 18.5383C16.7691 18.8389 16.7247 20.3279 16.7914 20.4806C17.2777 21.5923 18.0922 23.2711 18.6311 24.3308ZM22.231 31.9145C22.1417 31.094 22.2211 29.7048 22.2211 28.8424L22.2298 22.15L22.2463 16.5434L22.248 14.7844C22.2483 14.4841 22.2379 14.0081 22.2671 13.7227C22.1966 13.6648 22.1637 13.686 22.0484 13.6824L22.0242 25.4644L22.0297 28.8263C22.0288 29.0347 22.0378 29.8685 21.9991 30.0358L21.9728 30.0463C21.4449 29.0741 21.0056 28.0158 20.4835 27.0375C20.1312 26.377 19.8802 25.7116 19.564 25.0453C19.5591 25.9804 19.4602 26.1097 19.8724 26.9616C20.6438 28.5873 21.4931 30.2847 22.231 31.9145ZM23.8684 25.8762C27.2764 25.6404 30.7158 25.3138 34.1264 25.0482L37.7336 24.7689C38.3121 24.7263 39.3009 24.6834 39.8412 24.5949L39.8617 13.7184L39.8643 10.5226C39.8649 9.98872 39.8672 9.45485 39.8649 8.92104C39.8649 8.87227 39.8548 8.83526 39.819 8.80231C39.5723 9.2162 39.3087 9.42966 38.9512 9.75362L38.9165 23.5203C38.4498 23.5349 37.9081 23.5976 37.437 23.637L35.4127 23.79L27.1227 24.4499C26.4288 24.5021 25.7351 24.5579 25.042 24.6171C24.6484 24.6495 24.1725 24.7006 23.7849 24.6982C23.782 24.9072 23.7508 25.7594 23.8126 25.8806L23.8684 25.8762Z" stroke="#161616" stroke-width="0.4" mask="url(#path-1-outside-1_2422_7177)"/>
</svg>
