<svg width="360" height="49" viewBox="0 0 360 49" fill="none" xmlns="http://www.w3.org/2000/svg">
<path fill-rule="evenodd" clip-rule="evenodd" d="M179.204 369C148.142 369 122.655 366.054 110.708 364.581C98.7611 363.108 90.7964 362.371 80.4425 358.689C74.0708 356.479 68.4956 355.743 62.9204 357.216C59.7346 357.952 54.9557 360.898 50.9734 365.317C48.5841 367.527 45.3983 369 43.0089 369C38.2301 368.263 35.0443 365.317 32.6549 360.162C30.2655 353.533 29.4691 345.431 29.4691 335.856C29.4691 319.653 29.4691 307.132 29.4691 297.557C29.4691 283.563 30.2655 272.515 30.2655 263.677C31.0619 251.156 31.8584 240.108 32.6549 230.533C34.2478 221.695 33.4513 216.539 30.2655 213.593C27.8761 210.647 24.6903 208.437 20.7079 208.437C14.3363 206.964 8.7611 205.491 3.18588 202.545C4.05118e-05 201.072 -0.796474 199.599 0.796446 197.389C4.77875 194.443 8.76105 191.497 14.3363 189.287C25.4867 184.868 34.2478 179.713 41.4159 173.82C43.0089 170.874 43.8053 168.665 45.3983 162.772C46.9912 156.88 49.3806 146.569 52.5664 135.521C58.9381 112.689 66.9027 91.3293 75.6637 71.4431C83.6283 55.9761 93.1859 39.0359 104.336 22.0958C112.301 9.57485 117.876 2.20958 120.265 0C121.858 0.736527 124.248 2.20958 126.637 5.15568C129.027 8.10179 133.009 12.521 137.788 19.8862C140.973 25.0419 144.956 27.2515 149.735 27.988C157.699 27.988 168.053 27.2515 180 27.2515C191.947 27.2515 202.301 27.988 210.265 27.988C215.044 27.988 219.027 25.0419 222.212 19.8862C226.991 13.2575 230.973 8.10179 233.363 5.15568C236.549 2.20958 238.142 0 239.735 0C242.124 2.20958 246.903 9.57485 255.664 22.0958C266.814 39.7725 276.372 55.9761 284.336 71.4431C293.097 91.3293 301.062 112.689 307.434 135.521C310.619 146.569 313.009 156.144 314.602 162.772C316.195 168.665 316.991 171.611 318.584 173.82C324.956 179.713 334.513 184.868 345.664 189.287C351.239 191.497 355.221 194.443 359.204 197.389C360.796 198.862 360 200.335 356.814 202.545C351.239 205.491 345.664 206.964 339.292 208.437C336.106 209.174 332.92 210.647 329.735 213.593C327.345 215.802 326.549 221.695 327.345 230.533C328.142 239.371 328.938 250.419 329.735 263.677C329.735 272.515 330.531 283.563 330.531 297.557C330.531 307.132 330.531 319.653 330.531 335.856C330.531 346.168 329.735 354.269 327.345 360.162C324.956 365.317 321.77 368.263 316.991 369C313.805 369 311.416 367.527 309.027 365.317C304.248 360.898 300.266 358.689 297.08 357.216C291.504 355.743 285.133 356.479 279.557 358.689C268.407 361.635 261.239 363.108 249.292 364.581C237.345 366.054 211.858 369 180.796 369H179.204ZM248.496 61.8683C241.327 55.2395 229.381 55.2395 222.212 61.8683C215.044 55.2395 203.097 55.2395 195.929 61.8683C188.761 68.497 188.761 79.5449 195.929 86.1736L221.416 109.743L247.699 85.4371C254.867 78.8084 254.867 67.7605 247.699 61.1317L248.496 61.8683ZM109.911 61.8683C117.08 55.2395 129.027 55.2395 136.195 61.8683C143.363 55.2395 155.31 55.2395 162.478 61.8683C169.646 68.497 169.646 79.5449 162.478 86.1736L136.991 109.743L110.708 85.4371C103.54 78.8084 103.54 67.7605 110.708 61.1317L109.911 61.8683Z" fill="white"/>
</svg>
